<?xml version="1.0" standalone="no"?>
<!DOCTYPE svg PUBLIC "-//W3C//DTD SVG 20010904//EN"
 "http://www.w3.org/TR/2001/REC-SVG-20010904/DTD/svg10.dtd">
<svg version="1.0" xmlns="http://www.w3.org/2000/svg"
 width="1276.000000pt" height="78.000000pt" viewBox="0 0 1276.000000 78.000000"
 preserveAspectRatio="xMidYMid meet">

<g transform="translate(0.000000,78.000000) scale(0.100000,-0.100000)"
fill="#000000" stroke="none">
<path d="M227 593 c-11 -10 -8 -271 3 -278 6 -3 7 1 4 9 -5 14 9 16 110 16 71
0 116 -4 116 -10 0 -6 -31 -10 -74 -10 -78 0 -76 1 -67 -52 0 -5 26 -8 56 -8
54 0 55 0 55 -30 0 -16 4 -30 10 -30 5 0 7 7 4 15 -5 13 11 15 107 17 l114 2
-107 3 c-113 4 -146 19 -55 26 28 2 1 4 -60 5 -68 1 -113 6 -113 12 0 6 45 10
116 10 l117 0 -5 126 c-5 137 -8 144 -65 144 l-33 0 0 -105 0 -105 -105 0
-105 0 0 125 c0 114 -5 137 -23 118z"/>
<path d="M940 425 l0 -165 110 0 110 0 0 30 0 30 -81 0 -80 0 3 38 3 37 73 3
72 3 0 29 0 30 -76 0 -75 0 3 38 3 37 78 3 c74 3 77 4 77 27 l0 25 -110 0
-110 0 0 -165z"/>
<path d="M1390 539 c0 -45 -2 -50 -17 -44 -59 25 -120 12 -152 -34 -59 -84 -6
-201 90 -201 22 0 49 5 60 10 13 7 19 7 19 0 0 -5 14 -10 30 -10 l30 0 0 165
0 165 -30 0 c-29 0 -30 -1 -30 -51z m-20 -109 c11 -11 20 -31 20 -45 0 -29
-40 -75 -65 -75 -25 0 -65 46 -65 75 0 32 33 65 65 65 14 0 34 -9 45 -20z"/>
<path d="M2450 560 c0 -28 3 -30 35 -30 32 0 35 2 35 30 0 28 -3 30 -35 30
-32 0 -35 -2 -35 -30z"/>
<path d="M8292 574 c-12 -8 -22 -22 -22 -30 0 -11 -15 -14 -64 -14 -42 0 -67
-5 -75 -14 -8 -9 -11 -61 -9 -162 l3 -149 209 -3 c161 -2 211 1 218 10 13 21
10 292 -4 306 -7 7 -39 12 -74 12 -52 0 -64 3 -69 18 -6 20 -45 42 -73 42 -10
0 -28 -7 -40 -16z m72 -20 c29 -11 16 -24 -24 -24 -38 0 -49 8 -33 23 8 9 36
9 57 1z m24 -182 c6 -42 -34 -64 -82 -46 -16 6 -22 54 -9 68 4 4 25 6 48 4 33
-2 41 -7 43 -26z"/>
<path d="M8820 584 c0 -5 49 -203 71 -286 9 -36 11 -38 53 -38 l43 0 23 103
c12 56 26 108 30 115 3 8 18 -37 31 -100 l25 -113 45 -3 44 -3 41 166 41 165
-33 0 c-37 0 -38 -2 -71 -153 -9 -43 -20 -74 -23 -70 -4 5 -17 56 -30 116
l-23 107 -42 0 -42 0 -23 -107 c-13 -60 -26 -112 -30 -116 -4 -4 -15 29 -24
73 -33 151 -33 150 -71 150 -19 0 -35 -3 -35 -6z"/>
<path d="M9750 425 l0 -165 30 0 c26 0 30 3 30 29 0 16 8 39 19 52 l19 23 32
-52 c28 -46 35 -52 66 -52 l34 0 -40 65 c-22 36 -41 70 -43 75 -1 4 15 29 36
54 l38 46 -33 0 c-26 0 -43 -9 -73 -40 -21 -22 -43 -40 -47 -40 -4 0 -8 38 -8
85 l0 85 -30 0 -30 0 0 -165z"/>
<path d="M10090 425 l0 -165 110 0 110 0 0 30 0 30 -81 0 -80 0 3 38 3 37 73
3 72 3 0 29 0 30 -76 0 -75 0 3 38 3 37 78 3 c74 3 77 4 77 27 l0 25 -110 0
-110 0 0 -165z"/>
<path d="M11350 560 c0 -27 3 -30 30 -30 27 0 30 3 30 30 0 27 -3 30 -30 30
-27 0 -30 -3 -30 -30z"/>
<path d="M2290 550 c0 -19 -7 -33 -20 -40 -27 -14 -27 -60 -1 -60 16 0 19 -10
23 -71 3 -63 7 -74 31 -95 16 -14 41 -24 58 -24 24 0 29 4 29 24 0 17 -7 26
-25 30 -23 6 -25 10 -25 71 0 63 1 65 25 65 34 0 37 47 3 52 -19 2 -24 10 -26
41 -3 35 -5 37 -38 37 -31 0 -34 -3 -34 -30z"/>
<path d="M1815 492 c-72 -45 -79 -151 -14 -206 43 -37 115 -36 158 0 37 30 38
39 10 54 -16 9 -24 8 -37 -3 -31 -27 -57 -29 -85 -6 -31 24 -35 63 -11 97 19
28 68 29 91 3 13 -16 20 -17 40 -8 31 14 26 36 -16 64 -41 28 -95 30 -136 5z"/>
<path d="M2080 503 c-18 -7 -60 -44 -60 -53 0 -4 12 -12 26 -18 20 -10 28 -9
40 3 21 20 70 19 78 -1 8 -21 11 -20 -54 -33 -91 -20 -126 -73 -77 -119 25
-24 84 -30 118 -12 13 7 19 7 19 0 0 -5 14 -10 30 -10 l30 0 0 94 c0 84 -3 98
-23 121 -17 20 -34 28 -67 31 -25 2 -52 1 -60 -3z m90 -153 c0 -13 -37 -50
-49 -50 -39 0 -54 31 -23 49 22 13 72 14 72 1z"/>
<path d="M2613 490 c-74 -45 -83 -139 -19 -197 82 -76 216 -18 216 94 0 93
-115 153 -197 103z m109 -57 c21 -19 24 -71 4 -98 -18 -25 -74 -25 -92 0 -19
26 -17 75 3 97 20 22 61 23 85 1z"/>
<path d="M2922 494 c-12 -8 -22 -10 -22 -5 0 6 -13 11 -30 11 l-30 0 0 -120 0
-120 35 0 35 0 0 83 c0 87 8 107 45 107 37 0 45 -20 45 -107 l0 -83 35 0 35 0
0 73 c0 127 -27 177 -95 177 -17 0 -41 -7 -53 -16z"/>
<path d="M9343 494 c-115 -58 -75 -234 53 -234 85 0 134 47 134 130 0 88 -105
146 -187 104z m100 -56 c9 -7 20 -27 23 -45 5 -26 1 -37 -19 -57 -32 -31 -46
-32 -81 -5 -67 53 8 158 77 107z"/>
<path d="M9658 496 c-16 -8 -28 -11 -28 -5 0 5 -13 9 -30 9 l-30 0 0 -120 0
-120 30 0 30 0 0 73 c0 86 16 117 61 117 26 0 29 3 29 30 0 34 -18 39 -62 16z"/>
<path d="M10693 495 c-13 -9 -23 -11 -23 -6 0 6 -13 11 -30 11 l-30 0 0 -165
0 -165 35 0 35 0 0 57 c0 44 3 54 12 45 17 -17 100 -15 126 4 32 22 52 66 52
114 0 59 -49 110 -110 117 -32 3 -52 0 -67 -12z m92 -65 c23 -25 24 -76 2 -97
-22 -22 -76 -21 -93 2 -19 26 -17 75 3 97 21 24 65 23 88 -2z"/>
<path d="M10954 491 c-38 -23 -44 -32 -54 -78 -19 -82 36 -153 119 -153 34 0
56 6 75 21 32 25 33 33 3 46 -17 8 -28 7 -42 -3 -10 -8 -27 -14 -37 -14 -22 0
-61 37 -53 50 4 6 44 10 91 10 93 0 96 3 70 63 -19 46 -49 69 -98 74 -31 3
-52 -1 -74 -16z m98 -48 c29 -26 22 -33 -32 -33 -53 0 -68 18 -32 39 25 15 43
13 64 -6z"/>
<path d="M11252 494 c-12 -8 -22 -10 -22 -5 0 6 -13 11 -30 11 l-30 0 0 -120
0 -120 30 0 30 0 0 78 c0 88 14 112 63 112 23 0 27 4 27 30 0 25 -4 30 -23 30
-12 0 -33 -7 -45 -16z"/>
<path d="M11508 495 c-37 -21 -58 -64 -58 -121 0 -39 5 -51 34 -80 29 -29 41
-34 81 -34 46 0 83 13 97 34 12 17 10 22 -15 33 -17 8 -28 7 -42 -3 -10 -8
-27 -14 -37 -14 -22 0 -61 37 -53 50 4 6 45 10 92 10 l86 0 -6 37 c-13 79
-111 127 -179 88z m96 -51 c26 -26 18 -34 -34 -34 -37 0 -50 4 -50 15 0 32 58
45 84 19z"/>
<path d="M11802 494 c-12 -8 -22 -10 -22 -5 0 6 -13 11 -30 11 l-30 0 0 -120
0 -120 30 0 30 0 0 76 c0 91 10 114 50 114 40 0 50 -23 50 -114 l0 -76 30 0
30 0 0 96 c0 92 -1 97 -29 125 -33 33 -74 38 -109 13z"/>
<path d="M12035 492 c-72 -45 -79 -151 -14 -206 43 -37 115 -36 158 0 37 30
38 39 10 54 -16 9 -24 8 -37 -3 -31 -27 -57 -29 -85 -6 -31 24 -35 63 -11 97
19 28 68 29 91 3 13 -16 20 -17 40 -8 31 14 26 36 -16 64 -41 28 -95 30 -136
5z"/>
<path d="M12300 497 c-34 -17 -70 -74 -70 -109 0 -44 29 -97 61 -113 42 -22
111 -19 143 6 32 25 32 33 4 46 -16 7 -30 5 -50 -6 -25 -14 -30 -15 -55 -1
-16 9 -28 22 -28 30 0 12 18 16 83 18 l82 3 0 30 c0 79 -96 134 -170 96z m81
-47 c38 -21 23 -40 -31 -40 -54 0 -59 4 -33 32 18 20 36 23 64 8z"/>
<path d="M1500 405 c0 -88 2 -98 25 -120 27 -28 91 -35 114 -12 11 10 14 10
18 0 3 -7 18 -13 34 -13 l29 0 0 120 0 120 -35 0 -35 0 0 -85 c0 -80 -2 -86
-22 -94 -25 -9 -49 -4 -60 13 -4 6 -8 46 -8 89 l0 77 -30 0 -30 0 0 -95z"/>
<path d="M2450 380 l0 -120 35 0 35 0 0 120 0 120 -35 0 -35 0 0 -120z"/>
<path d="M10380 441 l42 -60 -25 -33 c-13 -18 -32 -45 -42 -60 l-17 -28 35 0
c30 0 40 6 61 36 l24 36 24 -36 c20 -31 28 -36 61 -36 l38 0 -41 59 c-22 33
-40 63 -40 66 0 3 18 30 40 60 l41 55 -40 0 c-34 0 -43 -5 -58 -30 -9 -16 -21
-30 -25 -30 -4 0 -15 14 -25 30 -14 25 -24 30 -56 30 l-38 0 41 -59z"/>
<path d="M11350 380 l0 -120 30 0 30 0 0 120 0 120 -30 0 -30 0 0 -120z"/>
</g>
</svg>
